<?xml version="1.0" encoding="iso-8859-1"?>
<!-- Generator: Adobe Illustrator 19.0.0, SVG Export Plug-In . SVG Version: 6.00 Build 0)  -->
<svg version="1.1" id="Layer_1" xmlns="http://www.w3.org/2000/svg" xmlns:xlink="http://www.w3.org/1999/xlink" x="0px" y="0px"
	 viewBox="0 0 500 500" style="enable-background:new 0 0 500 500;" xml:space="preserve">
<g transform="translate(1050.35 -540.36)">
	<path style="fill:#FFFFFF;" d="M-550.35,790.36c0,138.071-111.929,250-250,250s-250-111.929-250-250s111.929-250,250-250
		S-550.35,652.289-550.35,790.36z"/>
	<g transform="translate(0 540.36)">
		<path style="fill:#F3F3F3;" d="M-571.152,320.969c-0.047,0.158-0.093,0.317-0.141,0.475
			C-571.246,321.285-571.199,321.127-571.152,320.969z M-1027.115,328.504c33.325,96.728,124.304,161.697,226.611,161.824
			c102.315-0.119,193.305-65.089,226.633-161.824H-1027.115z"/>
		<path style="fill:#86D0EF;" d="M-799.105,9.715c-48.363-0.22-95.664,14.177-135.703,41.303
			c-53.111,36.088-89.546,91.953-101.158,155.105c-8.869,40.052-2.93,87.904,8.851,122.381h453.61
			c4.272-12.925,8.132-28.279,10.022-39.213c16.353-94.609-26.294-189.718-107.1-241.57
			C-708.945,23.104-753.524,9.921-799.105,9.715L-799.105,9.715z"/>
		<g>
			<path style="fill:#F3F3F3;" d="M-926.191,300.068c-14.553,0.007-27.984,4.625-35.197,12.1c-4.541-1.016-9.354-1.541-14.209-1.551
				c-22.403,0-40.564,10.741-40.565,23.99c-0.002,13.25,18.159,23.991,40.563,23.992c0.001,0,0.001,0,0.002,0
				c14.554-0.007,27.987-4.625,35.199-12.102c4.541,1.016,9.353,1.541,14.207,1.551c22.404,0,40.566-10.741,40.566-23.99
				c0,0,0,0,0,0C-885.625,310.809-903.787,300.068-926.191,300.068C-926.191,300.068-926.191,300.068-926.191,300.068z"/>
			<path style="fill:#F3F3F3;" d="M-667.107,297.599c-22.403,0-40.564,10.741-40.564,23.99c0,13.249,18.161,23.99,40.564,23.99
				c2.001-0.007,3.997-0.1,5.975-0.281c4.557,10.636,20.734,18.088,39.287,18.098c22.404,0,40.566-10.741,40.566-23.99c0,0,0,0,0,0
				c0-13.25-18.162-23.99-40.566-23.99c0,0,0,0,0,0c-2.001,0.007-3.998,0.102-5.975,0.283
				C-632.376,305.062-648.554,297.609-667.107,297.599z"/>
		</g>
	</g>
	<g>
		<path style="fill:#F74141;" d="M-880.677,788.346h173.488c12.646,0,22.827,10.181,22.827,22.827v75.33
			c0,12.646-10.181,22.827-22.827,22.827h-173.488c-12.646,0-22.827-10.181-22.827-22.827v-75.33
			C-903.504,798.527-893.323,788.346-880.677,788.346z"/>
		<path style="fill:#F74141;" d="M-870.429,695.083h19.101c2.53,0,4.568,2.037,4.568,4.568v35.71c0,2.53-2.037,4.568-4.568,4.568
			h-19.101c-2.53,0-4.568-2.037-4.568-4.568v-35.71C-874.996,697.12-872.959,695.083-870.429,695.083z"/>
	</g>
	<g>
		<path style="fill:#F2F2F2;stroke:#F2F2F2;stroke-width:7.078;" d="M-912.324,799.449l10.082-74.594l211.187-0.807l10.949,75.401
			L-912.324,799.449z"/>
		<path style="fill:#F2F2F2;" d="M-917.733,796.591h239.7c2.459,0,4.439,1.98,4.439,4.439s-1.98,4.439-4.439,4.439h-239.7
			c-2.459,0-4.439-1.98-4.439-4.439S-920.192,796.591-917.733,796.591z"/>
		<path style="fill:#F2F2F2;" d="M-875.208,692.712h28.511c0.667,0,1.204,0.537,1.204,1.204v3.973c0,0.667-0.537,1.204-1.204,1.204
			h-28.511c-0.667,0-1.204-0.537-1.204-1.204v-3.973C-876.412,693.249-875.875,692.712-875.208,692.712z"/>
	</g>
	<g>
		<path style="fill:#DC2228;" d="M-903.504,837.437h219.296v2h-219.296V837.437z"/>
		<path style="fill:#DC2228;" d="M-903.504,858.719h219.296v2h-219.296V858.719z"/>
	</g>
	<path style="fill:#86D0EF;stroke:#F2F2F2;stroke-width:4.228;" d="M-869.12,829.756h52.241c0.437,0,0.789,0.352,0.789,0.788v33.18
		c0,0.437-0.352,0.789-0.789,0.789h-52.241c-0.437,0-0.788-0.352-0.788-0.789v-33.18
		C-869.909,830.108-869.557,829.756-869.12,829.756z"/>
	<g>
		<path style="fill:#DC2228;" d="M-903.504,882.622h219.296v2h-219.296V882.622z"/>
		<path style="fill:#DC2228;" d="M-903.504,903.904h219.296v2h-219.296V903.904z"/>
	</g>
	<g shape-rendering="auto" image-rendering="auto" color-rendering="auto" color-interpolation="sRGB">
		<path style="fill:#F2F2F2;" d="M-767.885,818.662c-2.917,0-5.369,2.452-5.369,5.369v85.971c0,2.917,2.452,5.369,5.369,5.369
			h47.309c2.917,0,5.369-2.452,5.369-5.369v-85.971c0-2.917-2.452-5.369-5.369-5.369H-767.885z"/>
		<path style="fill:#86D0EF;" d="M-766.601,825.314h44.744v83.406h-44.744V825.314z"/>
	</g>
	<g>
		<path style="fill:#F2F2F2;" d="M-744.986,823.672h2.272c0.878,0,1.585,0.707,1.585,1.585v86.172c0,0.878-0.707,1.585-1.585,1.585
			h-2.272c-0.878,0-1.585-0.707-1.585-1.585v-86.172C-746.571,824.379-745.864,823.672-744.986,823.672L-744.986,823.672z"/>
		<g transform="matrix(0 1 -1 0 0 0)">
			<path style="fill:#F2F2F2;" d="M885.376,717.773h3.576c0.517,0,0.933,0.416,0.933,0.933v50.741c0,0.517-0.416,0.933-0.933,0.933
				h-3.576c-0.517,0-0.933-0.416-0.933-0.933v-50.741C884.443,718.189,884.859,717.773,885.376,717.773z"/>
			<path style="fill:#F2F2F2;" d="M844.106,718.453h3.576c0.517,0,0.933,0.416,0.933,0.933v50.741c0,0.517-0.416,0.933-0.933,0.933
				h-3.576c-0.517,0-0.933-0.416-0.933-0.933v-50.741C843.173,718.87,843.589,718.453,844.106,718.453z"/>
			<path style="fill:#F2F2F2;" d="M865.875,718h3.576c0.517,0,0.933,0.416,0.933,0.933v50.741c0,0.517-0.416,0.933-0.933,0.933
				h-3.576c-0.517,0-0.933-0.416-0.933-0.933v-50.741C864.942,718.416,865.358,718,865.875,718z"/>
		</g>
	</g>
	<path style="fill:#FFFFFF;" d="M-742.489,734.784c0,2.004-1.624,3.628-3.628,3.628c0,0,0,0,0,0c-2.004,0-3.628-1.624-3.628-3.628
		c0,0,0,0,0,0c0-2.004,1.624-3.628,3.628-3.628c0,0,0,0,0,0C-744.114,731.156-742.489,732.78-742.489,734.784
		C-742.489,734.784-742.489,734.784-742.489,734.784z"/>
	<g>
		<path style="fill:#F3F3F3;" d="M-918.789,884.842c-22.404,0-40.566,10.741-40.566,23.99c0,0,0,0,0,0
			c0,13.25,18.162,23.99,40.566,23.99c0,0,0,0,0,0c9.564-0.009,18.814-2.016,26.119-5.666c0.953,12.822,18.8,22.93,40.502,22.938
			c22.404,0,40.566-10.741,40.566-23.99c0,0,0,0,0,0c0-13.25-18.162-23.99-40.566-23.99c0,0,0,0,0,0
			c-9.563,0.01-18.813,2.017-26.117,5.668C-879.236,894.958-897.085,884.849-918.789,884.842z"/>
		<path style="fill:#F3F3F3;" d="M-624.073,913.769c0,13.25-18.162,23.991-40.566,23.991h0c-22.404,0-40.566-10.741-40.566-23.99
			c0,0,0,0,0,0c0-13.25,18.162-23.991,40.566-23.991h0C-642.235,889.779-624.073,900.52-624.073,913.769
			C-624.073,913.769-624.073,913.769-624.073,913.769z"/>
	</g>
	
		<radialGradient id="SVGID_1_" cx="-1719.9218" cy="974.9178" r="36.64" gradientTransform="matrix(1 0 0 -1 1050.35 1582.7156)" gradientUnits="userSpaceOnUse">
		<stop  offset="0" style="stop-color:#FFFFFF"/>
		<stop  offset="1" style="stop-color:#FFFFFF;stop-opacity:0"/>
	</radialGradient>
	<path style="fill:url(#SVGID_1_);" d="M-689.761,577.248c-10.265,6.777-16.445,18.252-16.453,30.553
		c0,20.236,16.404,36.64,36.639,36.641c0,0,0.001,0,0.001,0c16.714-0.022,31.295-11.352,35.445-27.543
		c-11.19-10.763-23.399-20.414-36.453-28.818C-676.806,584.178-683.206,580.564-689.761,577.248z"/>
	<g>
		<path style="fill:#FFFFFF;" d="M-951.292,672.95c0,2.444-1.981,4.425-4.425,4.425l0,0c-2.444,0-4.425-1.981-4.425-4.425l0,0
			c0-2.444,1.981-4.425,4.425-4.425l0,0C-953.274,668.525-951.292,670.506-951.292,672.95L-951.292,672.95z"/>
		<path style="fill:#FFFFFF;" d="M-853.935,624.271c0,2.444-1.981,4.425-4.425,4.425l0,0c-2.444,0-4.425-1.981-4.425-4.425l0,0
			c0-2.444,1.981-4.425,4.425-4.425l0,0C-855.916,619.846-853.935,621.827-853.935,624.271L-853.935,624.271z"/>
		<path style="fill:#FFFFFF;" d="M-763.215,646.398c0,2.444-1.981,4.425-4.425,4.425l0,0c-2.444,0-4.425-1.981-4.425-4.425l0,0
			c0-2.444,1.981-4.425,4.425-4.425l0,0C-765.196,641.973-763.215,643.954-763.215,646.398L-763.215,646.398z"/>
		<path style="fill:#FFFFFF;" d="M-765.428,717.204c0,2.444-1.981,4.425-4.425,4.425l0,0c-2.444,0-4.425-1.981-4.425-4.425l0,0
			c0-2.444,1.981-4.425,4.425-4.425l0,0C-767.409,712.778-765.428,714.76-765.428,717.204L-765.428,717.204z"/>
		<path style="fill:#FFFFFF;" d="M-696.835,734.905c0,2.444-1.981,4.425-4.425,4.425l0,0c-2.444,0-4.425-1.981-4.425-4.425l0,0
			c0-2.444,1.981-4.425,4.425-4.425l0,0C-698.816,730.48-696.835,732.461-696.835,734.905L-696.835,734.905z"/>
		<path style="fill:#FFFFFF;" d="M-590.627,710.566c0,2.444-1.981,4.425-4.425,4.425l0,0c-2.444,0-4.425-1.981-4.425-4.425l0,0
			c0-2.444,1.981-4.425,4.425-4.425l0,0C-592.608,706.14-590.627,708.122-590.627,710.566L-590.627,710.566z"/>
		<path style="fill:#FFFFFF;" d="M-909.252,604.357c0,2.444-1.981,4.425-4.425,4.425l0,0c-2.444,0-4.425-1.981-4.425-4.425l0,0
			c0-2.444,1.981-4.425,4.425-4.425l0,0C-911.233,599.932-909.252,601.913-909.252,604.357L-909.252,604.357z"/>
		<path style="fill:#FFFFFF;" d="M-840.659,750.394c0,2.444-1.981,4.425-4.425,4.425l0,0c-2.444,0-4.425-1.981-4.425-4.425l0,0
			c0-2.444,1.981-4.425,4.425-4.425l0,0C-842.64,745.969-840.659,747.95-840.659,750.394L-840.659,750.394z"/>
		<path style="fill:#FFFFFF;" d="M-916.647,706.164c0,2.444-1.981,4.425-4.425,4.425l0,0c-2.444,0-4.425-1.981-4.425-4.425l0,0
			c0-2.444,1.981-4.425,4.425-4.425l0,0C-918.629,701.739-916.647,703.72-916.647,706.164L-916.647,706.164z"/>
		<path style="fill:#FFFFFF;" d="M-999.524,741.932c0,2.444-1.981,4.425-4.425,4.425l0,0c-2.444,0-4.425-1.981-4.425-4.425v0
			c0-2.444,1.981-4.425,4.425-4.425h0C-1001.505,737.507-999.524,739.488-999.524,741.932L-999.524,741.932z"/>
		<path style="fill:#FFFFFF;" d="M-942.819,779.444c0,2.444-1.981,4.425-4.425,4.425l0,0c-2.444,0-4.425-1.981-4.425-4.425l0,0
			c0-2.444,1.981-4.425,4.425-4.425l0,0C-944.8,775.019-942.819,777-942.819,779.444L-942.819,779.444z"/>
		<path style="fill:#FFFFFF;" d="M-1022.206,803.871c0,2.444-1.981,4.425-4.425,4.425c-2.444,0-4.425-1.981-4.425-4.425l0,0
			c0-2.444,1.981-4.425,4.425-4.425h0C-1024.187,799.446-1022.206,801.427-1022.206,803.871L-1022.206,803.871z"/>
		<path style="fill:#FFFFFF;" d="M-602.59,833.532c0,2.444-1.981,4.425-4.425,4.425l0,0c-2.444,0-4.425-1.981-4.425-4.425l0,0
			c0-2.444,1.981-4.425,4.425-4.425l0,0C-604.571,829.107-602.59,831.088-602.59,833.532L-602.59,833.532z"/>
		<path style="fill:#FFFFFF;" d="M-627.016,775.082c0,2.444-1.981,4.425-4.425,4.425l0,0c-2.444,0-4.425-1.981-4.425-4.425l0,0
			c0-2.444,1.981-4.425,4.425-4.425l0,0C-628.998,770.657-627.016,772.638-627.016,775.082L-627.016,775.082z"/>
		<path style="fill:#FFFFFF;" d="M-655.805,727.101c0,2.444-1.981,4.425-4.425,4.425l0,0c-2.444,0-4.425-1.981-4.425-4.425l0,0
			c0-2.444,1.981-4.425,4.425-4.425l0,0C-657.786,722.676-655.805,724.657-655.805,727.101L-655.805,727.101z"/>
		<path style="fill:#FFFFFF;" d="M-574.673,757.635c0,2.444-1.981,4.425-4.425,4.425l0,0c-2.444,0-4.425-1.981-4.425-4.425l0,0
			c0-2.444,1.981-4.425,4.425-4.425l0,0C-576.655,753.209-574.673,755.191-574.673,757.635L-574.673,757.635z"/>
		<path style="fill:#FFFFFF;" d="M-631.378,674.758c0,2.444-1.981,4.425-4.425,4.425l0,0c-2.444,0-4.425-1.981-4.425-4.425l0,0
			c0-2.444,1.981-4.425,4.425-4.425l0,0C-633.36,670.333-631.378,672.314-631.378,674.758L-631.378,674.758z"/>
		<path style="fill:#FFFFFF;" d="M-704.658,668.652c0,2.444-1.981,4.425-4.425,4.425l0,0c-2.444,0-4.425-1.981-4.425-4.425l0,0
			c0-2.444,1.981-4.425,4.425-4.425l0,0C-706.64,664.226-704.658,666.208-704.658,668.652L-704.658,668.652z"/>
		<path style="fill:#FFFFFF;" d="M-743.043,580.541c0,2.444-1.981,4.425-4.425,4.425l0,0c-2.444,0-4.425-1.981-4.425-4.425l0,0
			c0-2.444,1.981-4.425,4.425-4.425l0,0C-745.025,576.116-743.043,578.097-743.043,580.541L-743.043,580.541z"/>
		<path style="fill:#FFFFFF;" d="M-815.451,582.286c0,2.444-1.981,4.425-4.425,4.425l0,0c-2.444,0-4.425-1.981-4.425-4.425l0,0
			c0-2.444,1.981-4.425,4.425-4.425l0,0C-817.432,577.861-815.451,579.842-815.451,582.286L-815.451,582.286z"/>
		<path style="fill:#FFFFFF;" d="M-866.921,564.838c0,2.444-1.981,4.425-4.425,4.425l0,0c-2.444,0-4.425-1.981-4.425-4.425l0,0
			c0-2.444,1.981-4.425,4.425-4.425l0,0C-868.903,560.413-866.921,562.394-866.921,564.838L-866.921,564.838z"/>
		<path style="fill:#FFFFFF;" d="M-979.355,630.641c-1.892,2.126-3.747,4.286-5.563,6.479c0.823,1.207,2.189,1.93,3.65,1.932
			c2.444,0,4.425-1.98,4.426-4.424C-976.843,632.926-977.821,631.376-979.355,630.641z"/>
		<path style="fill:#FFFFFF;" d="M-809.344,679.993c0,2.444-1.981,4.425-4.425,4.425l0,0c-2.444,0-4.425-1.981-4.425-4.425l0,0
			c0-2.444,1.981-4.425,4.425-4.425l0,0C-811.326,675.567-809.344,677.549-809.344,679.993L-809.344,679.993z"/>
		<path style="fill:#FFFFFF;" d="M-791.024,776.827c0,2.444-1.981,4.425-4.425,4.425l0,0c-2.444,0-4.425-1.981-4.425-4.425l0,0
			c0-2.444,1.981-4.425,4.425-4.425l0,0C-793.005,772.402-791.024,774.383-791.024,776.827L-791.024,776.827z"/>
	</g>
	<path style="fill:#DC2228;" d="M-903.675,816.155h219.296v2h-219.296V816.155z"/>
	<g>
		<path style="fill:#F2F2F2;fill-opacity:0.627;" d="M-845.366,675.403c0,7.562-6.13,13.691-13.691,13.691c0,0,0,0,0,0
			c-7.562,0-13.691-6.13-13.691-13.691c0,0,0,0,0,0c0-7.562,6.13-13.691,13.691-13.691c0,0,0,0,0,0
			C-851.496,661.712-845.366,667.842-845.366,675.403C-845.366,675.403-845.366,675.403-845.366,675.403z"/>
		<path style="fill:#F2F2F2;fill-opacity:0.627;" d="M-854.845,673.297c0,7.562-6.13,13.691-13.691,13.691c0,0,0,0,0,0
			c-7.562,0-13.691-6.13-13.691-13.691c0,0,0,0,0,0c0-7.562,6.13-13.691,13.691-13.691c0,0,0,0,0,0
			C-860.975,659.606-854.845,665.735-854.845,673.297C-854.845,673.297-854.845,673.297-854.845,673.297z"/>
		<path style="fill:#F2F2F2;fill-opacity:0.627;" d="M-844.313,659.606c0,7.562-6.13,13.691-13.691,13.691c0,0,0,0,0,0
			c-7.562,0-13.691-6.13-13.691-13.691c0,0,0,0,0,0c0-7.562,6.13-13.691,13.691-13.691c0,0,0,0,0,0
			C-850.443,645.914-844.313,652.044-844.313,659.606C-844.313,659.606-844.313,659.606-844.313,659.606z"/>
		<path style="fill:#F2F2F2;fill-opacity:0.627;" d="M-860.282,647.238c0,4.671-3.786,8.457-8.457,8.457s-8.457-3.786-8.457-8.457
			s3.786-8.457,8.457-8.457S-860.282,642.567-860.282,647.238z"/>
	</g>
</g>
<g>
</g>
<g>
</g>
<g>
</g>
<g>
</g>
<g>
</g>
<g>
</g>
<g>
</g>
<g>
</g>
<g>
</g>
<g>
</g>
<g>
</g>
<g>
</g>
<g>
</g>
<g>
</g>
<g>
</g>
</svg>
